<svg width="42" height="42" viewBox="0 0 42 42" fill="none" xmlns="http://www.w3.org/2000/svg">
<rect y="20.5061" width="29" height="29" transform="rotate(-45 0 20.5061)" fill="#CD1707"/>
<path d="M15.064 27.5002C14.7653 27.5855 14.4987 27.5855 14.264 27.5002C14.0293 27.4149 13.864 27.2389 13.768 26.9722C13.6827 26.7162 13.6987 26.4709 13.816 26.2362C13.9333 26.0015 14.1307 25.8522 14.408 25.7882C14.76 25.7029 15.1547 25.5855 15.592 25.4362C16.04 25.2762 16.4827 25.1109 16.92 24.9402C17.3573 24.7589 17.7413 24.5935 18.072 24.4442L18.088 24.4282C17.352 24.3855 16.792 24.2735 16.408 24.0922C16.024 23.9002 15.7627 23.5909 15.624 23.1642C15.4853 22.7375 15.416 22.1509 15.416 21.4042V19.6282C15.416 18.9882 15.464 18.4709 15.56 18.0762C15.656 17.6815 15.832 17.3775 16.088 17.1642C16.3547 16.9402 16.728 16.7909 17.208 16.7162C17.688 16.6309 18.3173 16.5882 19.096 16.5882H20.376C20.4613 16.4815 20.5467 16.3749 20.632 16.2682C20.7173 16.1615 20.7973 16.0602 20.872 15.9642C21.0853 15.6762 21.016 15.5322 20.664 15.5322H17.8C17.3093 16.0122 16.7813 16.4602 16.216 16.8762C15.6507 17.2922 15.0907 17.6602 14.536 17.9802C14.28 18.1295 14.0133 18.1829 13.736 18.1402C13.4693 18.0975 13.272 17.9589 13.144 17.7242C13.016 17.5109 12.9733 17.2869 13.016 17.0522C13.0587 16.8175 13.1973 16.6415 13.432 16.5242C13.9653 16.2469 14.4933 15.9162 15.016 15.5322C15.5387 15.1375 16.0187 14.7215 16.456 14.2842C16.904 13.8469 17.2667 13.4202 17.544 13.0042C17.704 12.7695 17.9227 12.6149 18.2 12.5402C18.4773 12.4655 18.7333 12.5135 18.968 12.6842C19.1813 12.8442 19.3093 13.0415 19.352 13.2762C19.3947 13.5002 19.3307 13.7295 19.16 13.9642L19.064 14.1082H22.184C22.8133 14.1082 23.2293 14.2842 23.432 14.6362C23.6347 14.9882 23.5813 15.3935 23.272 15.8522C23.1867 15.9802 23.096 16.1082 23 16.2362C22.904 16.3535 22.808 16.4762 22.712 16.6042C23.4907 16.6362 24.0773 16.7482 24.472 16.9402C24.8773 17.1215 25.1493 17.4255 25.288 17.8522C25.4373 18.2789 25.512 18.8709 25.512 19.6282V21.4042C25.512 22.1722 25.4373 22.7695 25.288 23.1962C25.1493 23.6229 24.8773 23.9322 24.472 24.1242C24.0667 24.3055 23.464 24.4122 22.664 24.4442C22.9947 24.5935 23.3787 24.7589 23.816 24.9402C24.2533 25.1109 24.6907 25.2762 25.128 25.4362C25.576 25.5855 25.976 25.7029 26.328 25.7882C26.6053 25.8522 26.8027 26.0015 26.92 26.2362C27.0373 26.4709 27.0533 26.7162 26.968 26.9722C26.872 27.2389 26.7067 27.4149 26.472 27.5002C26.2373 27.5855 25.9707 27.5855 25.672 27.5002C25.2987 27.3829 24.8827 27.2335 24.424 27.0522C23.976 26.8815 23.528 26.6949 23.08 26.4922C22.6427 26.3002 22.2373 26.1082 21.864 25.9162C21.6293 25.7882 21.4747 25.6175 21.4 25.4042C21.336 25.1909 21.3627 24.9722 21.48 24.7482C21.544 24.6202 21.6347 24.5242 21.752 24.4602H18.984C19.1013 24.5242 19.192 24.6202 19.256 24.7482C19.3733 24.9722 19.3947 25.1909 19.32 25.4042C19.256 25.6175 19.1013 25.7882 18.856 25.9162C18.4933 26.1082 18.088 26.3002 17.64 26.4922C17.2027 26.6949 16.76 26.8815 16.312 27.0522C15.864 27.2335 15.448 27.3829 15.064 27.5002ZM17.368 20.9242H23.56V20.1242H17.368V20.9242ZM17.384 18.8442H23.544C23.5227 18.5989 23.4587 18.4175 23.352 18.3002C23.256 18.1829 23.0853 18.1082 22.84 18.0762C22.6053 18.0442 22.2693 18.0282 21.832 18.0282H19.112C18.6747 18.0282 18.3333 18.0442 18.088 18.0762C17.8533 18.1082 17.6827 18.1829 17.576 18.3002C17.48 18.4175 17.416 18.5989 17.384 18.8442ZM19.112 23.0042H21.832C22.2693 23.0042 22.6053 22.9882 22.84 22.9562C23.0853 22.9242 23.256 22.8549 23.352 22.7482C23.4587 22.6309 23.5227 22.4495 23.544 22.2042H17.384C17.416 22.4495 17.48 22.6309 17.576 22.7482C17.6827 22.8549 17.8533 22.9242 18.088 22.9562C18.3333 22.9882 18.6747 23.0042 19.112 23.0042Z" fill="white"/>
</svg>
